<svg width="16" height="12" fill="none" xmlns="http://www.w3.org/2000/svg"><g clip-path="url(#clip0_152822_53)"><path d="M-4 0h23.822v12H-4V0z" fill="#0039A6"/><path d="M-4 0v1.34L17.158 12h2.664v-1.34L-1.336 0H-4zm23.822 0v1.34L-1.336 12H-4v-1.34L17.158 0h2.664z" fill="#fff"/><path d="M5.926 0v12h3.97V0h-3.97zM-4 4v4h23.822V4H-4z" fill="#fff"/><path d="M-4 4.8v2.4h23.822V4.8H-4zM6.72 0v12h2.382V0H6.72zM-4 12l7.94-4h1.777l-7.942 4H-4zm0-12l7.94 4H2.165L-4 .896V0zm14.107 4l7.94-4h1.775l-7.94 4h-1.775zm9.715 8l-7.94-4h1.775l6.165 3.105V12z" fill="#D52B1E"/></g><defs><clipPath id="clip0_152822_53"><path fill="#fff" d="M0 0h16v12H0z"/></clipPath></defs></svg>