<svg width="20" height="20" fill="none" xmlns="http://www.w3.org/2000/svg"><path d="M8.234 6.146c0 .947.823 1.714 1.838 1.714 1.016 0 1.84-.767 1.84-1.714 0-.946-.824-1.714-1.84-1.714-1.015 0-1.838.768-1.838 1.714z" fill="currentColor"/><path fill-rule="evenodd" clip-rule="evenodd" d="M6 0a6 6 0 00-6 6v8a6 6 0 006 6h8a6 6 0 006-6V6a6 6 0 00-6-6H6zm-.376 6.146C5.624 3.856 7.616 2 10.072 2c2.457 0 4.449 1.856 4.449 4.146s-1.992 4.147-4.449 4.147c-2.456 0-4.448-1.857-4.448-4.147zm8.923 6.28c-.056.041-1.123.828-2.904 1.166l2.688 2.483c.472.44.473 1.154.001 1.594a1.273 1.273 0 01-1.71.001l-2.61-2.368-2.37 2.353a1.25 1.25 0 01-.87.345c-.303 0-.606-.105-.84-.316A1.074 1.074 0 015.9 16.09l2.55-2.485c-1.83-.33-2.94-1.137-2.998-1.18-.521-.39-.605-1.099-.187-1.585.418-.485 1.179-.563 1.7-.174.011.008 1.173.822 3.046.823 1.873 0 3.01-.815 3.022-.823.521-.39 1.282-.311 1.7.174.418.486.334 1.196-.187 1.585z" fill="currentColor"/></svg>