<svg width="20" height="20" fill="none" xmlns="http://www.w3.org/2000/svg"><path fill-rule="evenodd" clip-rule="evenodd" d="M0 6a6 6 0 016-6h8a6 6 0 016 6v8a6 6 0 01-6 6H6a6 6 0 01-6-6V6zm15.344 5.447c.37.33.74.662 1.068 1.033.13.146.255.295.365.455.058.083.112.169.161.258a.605.605 0 01.035.545.428.428 0 01-.367.254h-2.185c-.564.044-1.013-.171-1.392-.535-.302-.29-.582-.599-.873-.898a2.018 2.018 0 00-.394-.33c-.166-.102-.32-.13-.453-.083a.526.526 0 00-.274.25c-.174.298-.214.628-.23.96-.024.486-.18.613-.696.636-1.105.048-2.152-.11-3.127-.635-.859-.462-1.524-1.115-2.104-1.855C3.75 10.06 2.886 8.478 2.11 6.849c-.174-.367-.046-.562.383-.57a65.078 65.078 0 012.139 0c.29.004.482.16.594.418.385.894.857 1.744 1.45 2.532l.109.143c.125.16.261.31.438.425.253.163.446.11.566-.157.076-.17.109-.35.126-.532.056-.62.063-1.242-.035-1.86-.061-.388-.293-.638-.702-.71-.209-.038-.178-.111-.076-.224.175-.193.34-.314.67-.314h2.469c.388.072.476.236.529.606l.002 2.585c-.005.143.076.567.348.66.218.068.362-.097.493-.227.592-.592 1.014-1.291 1.391-2.014.167-.319.311-.65.45-.98a.605.605 0 01.193-.262.58.58 0 01.366-.098l2.377.002c.07 0 .14 0 .21.012.211.034.341.095.4.2.051.093.045.221-.014.395-.187.557-.545 1.024-.901 1.489l-.043.055c-.397.518-.82 1.017-1.214 1.537-.361.475-.333.714.116 1.126.132.122.267.242.4.361z" fill="currentColor"/></svg>