<svg width="1920" height="12" fill="none" xmlns="http://www.w3.org/2000/svg"><path opacity=".6" d="M-146 1c8.244 0 8.244 10 16.488 10s8.244-10 16.488-10 8.244 10 16.469 10c8.244 0 8.244-10 16.468-10 8.244 0 8.244 10 16.469 10 8.244 0 8.244-10 16.487-10 8.244 0 8.244 10 16.489 10C-22.4 11-22.4 1-14.155 1-5.91 1-5.91 11 2.334 11c8.243 0 8.243-10 16.487-10 8.244 0 8.244 10 16.488 10S43.553 1 51.797 1s8.244 10 16.469 10C76.51 11 76.51 1 84.734 1c8.244 0 8.244 10 16.469 10 8.244 0 8.244-10 16.487-10 8.245 0 8.245 10 16.489 10 8.243 0 8.243-10 16.487-10 8.245 0 8.245 10 16.489 10 8.243 0 8.243-10 16.487-10 8.244 0 8.244 10 16.488 10s8.244-10 16.488-10 8.244 10 16.469 10c8.244 0 8.244-10 16.469-10 8.244 0 8.244 10 16.468 10 8.244 0 8.244-10 16.488-10M283 1c8.244 0 8.244 10 16.488 10s8.244-10 16.488-10 8.244 10 16.468 10c8.245 0 8.245-10 16.469-10 8.244 0 8.244 10 16.469 10 8.244 0 8.244-10 16.487-10 8.244 0 8.244 10 16.489 10 8.243 0 8.243-10 16.487-10 8.244 0 8.244 10 16.488 10s8.244-10 16.488-10 8.244 10 16.488 10 8.244-10 16.488-10 8.244 10 16.469 10c8.244 0 8.244-10 16.468-10 8.244 0 8.244 10 16.469 10 8.244 0 8.244-10 16.487-10 8.245 0 8.245 10 16.489 10 8.243 0 8.243-10 16.487-10 8.245 0 8.245 10 16.489 10 8.243 0 8.243-10 16.487-10 8.244 0 8.244 10 16.488 10s8.244-10 16.488-10 8.244 10 16.469 10c8.244 0 8.244-10 16.468-10 8.245 0 8.245 10 16.469 10 8.244 0 8.244-10 16.488-10S719.756 11 728 11s8.244-10 16.488-10 8.244 10 16.488 10 8.244-10 16.468-10c8.245 0 8.245 10 16.469 10 8.244 0 8.244-10 16.469-10 8.244 0 8.244 10 16.487 10 8.244 0 8.244-10 16.489-10 8.243 0 8.243 10 16.487 10 8.244 0 8.244-10 16.488-10s8.244 10 16.488 10 8.244-10 16.488-10 8.244 10 16.488 10 8.244-10 16.469-10c8.244 0 8.244 10 16.468 10 8.244 0 8.244-10 16.469-10 8.244 0 8.244 10 16.487 10 8.245 0 8.245-10 16.49-10 8.24 0 8.24 10 16.49 10 8.24 0 8.24-10 16.48-10 8.25 0 8.25 10 16.49 10 8.25 0 8.25-10 16.49-10 8.24 0 8.24 10 16.49 10 8.24 0 8.24-10 16.47-10 8.24 0 8.24 10 16.47 10 8.24 0 8.24-10 16.46-10 8.25 0 8.25 10 16.49 10 8.25 0 8.25-10 16.49-10m1 0c8.24 0 8.24 10 16.49 10 8.24 0 8.24-10 16.49-10 8.24 0 8.24 10 16.46 10 8.25 0 8.25-10 16.47-10 8.25 0 8.25 10 16.47 10 8.25 0 8.25-10 16.49-10 8.24 0 8.24 10 16.49 10 8.24 0 8.24-10 16.49-10 8.24 0 8.24 10 16.48 10 8.25 0 8.25-10 16.49-10 8.25 0 8.25 10 16.49 10 8.24 0 8.24-10 16.49-10 8.24 0 8.24 10 16.47 10 8.24 0 8.24-10 16.46-10 8.25 0 8.25 10 16.47 10 8.25 0 8.25-10 16.49-10 8.24 0 8.24 10 16.49 10 8.24 0 8.24-10 16.49-10 8.24 0 8.24 10 16.48 10 8.25 0 8.25-10 16.49-10 8.25 0 8.25 10 16.49 10 8.24 0 8.24-10 16.49-10 8.24 0 8.24 10 16.47 10 8.24 0 8.24-10 16.47-10 8.24 0 8.24 10 16.46 10 8.25 0 8.25-10 16.49-10 8.25 0 8.25 10 16.49 10m1 0c8.24 0 8.24-10 16.49-10 8.24 0 8.24 10 16.49 10 8.24 0 8.24-10 16.46-10 8.25 0 8.25 10 16.47 10 8.25 0 8.25-10 16.47-10 8.25 0 8.25 10 16.49 10 8.24 0 8.24-10 16.49-10 8.24 0 8.24 10 16.49 10 8.24 0 8.24-10 16.48-10 8.25 0 8.25 10 16.49 10 8.25 0 8.25-10 16.49-10 8.24 0 8.24 10 16.49 10 8.24 0 8.24-10 16.47-10 8.24 0 8.24 10 16.46 10 8.25 0 8.25-10 16.47-10 8.25 0 8.25 10 16.49 10 8.24 0 8.24-10 16.49-10 8.24 0 8.24 10 16.49 10 8.24 0 8.24-10 16.48-10 8.25 0 8.25 10 16.49 10 8.25 0 8.25-10 16.49-10 8.24 0 8.24 10 16.49 10 8.24 0 8.24-10 16.47-10 8.24 0 8.24 10 16.47 10 8.24 0 8.24-10 16.46-10 8.25 0 8.25 10 16.49 10 8.25 0 8.25-10 16.49-10" stroke="#F5F6F7" stroke-miterlimit="10" stroke-linecap="square"/></svg>