<svg width="1024" height="12" fill="none" xmlns="http://www.w3.org/2000/svg"><path opacity=".6" d="M0 1c8.253 0 8.253 10 16.506 10C24.76 11 24.76 1 33.014 1c8.253 0 8.253 10 16.487 10 8.254 0 8.254-10 16.487-10 8.254 0 8.254 10 16.488 10 8.253 0 8.253-10 16.506-10s8.253 10 16.507 10c8.253 0 8.253-10 16.506-10 8.254 0 8.253 10 16.507 10 8.253 0 8.253-10 16.506-10 8.254 0 8.254 10 16.507 10 8.253 0 8.253-10 16.506-10 8.254 0 8.254 10 16.488 10 8.253 0 8.253-10 16.487-10 8.253 0 8.253 10 16.487 10 8.253 0 8.253-10 16.506-10 8.254 0 8.254 10 16.507 10 8.253 0 8.253-10 16.507-10 8.253 0 8.253 10 16.506 10s8.253-10 16.487-10c8.254 0 8.254 10 16.488 10 8.253 0 8.253-10 16.487-10 8.253 0 8.253 10 16.506 10s8.253-10 16.507-10c8.253 0 8.253 10 16.506 10 8.254 0 8.254-10 16.507-10 8.253 0 8.253 10 16.506 10 8.254 0 8.254-10 16.507-10 8.253 0 8.253 10 16.506 10 8.254 0 8.254-10 16.488-10 8.253 0 8.253 10 16.487 10 8.253 0 8.253-10 16.487-10 8.253 0 8.253 10 16.506 10 8.254 0 8.254-10 16.507-10 8.253 0 8.253 10 16.506 10 8.254 0 8.254-10 16.507-10 8.253 0 8.253 10 16.507 10 8.253 0 8.253-10 16.506-10s8.253 10 16.507 10c8.253 0 8.253-10 16.487-10 8.253 0 8.253 10 16.487 10 8.254 0 8.254-10 16.487-10 8.254 0 8.254 10 16.507 10 8.253 0 8.253-10 16.506-10M727 1c8.253 0 8.253 10 16.506 10s8.253-10 16.507-10c8.253 0 8.253 10 16.487 10 8.253 0 8.253-10 16.487-10 8.254 0 8.253 10 16.487 10 8.254 0 8.254-10 16.506-10 8.254 0 8.254 10 16.507 10 8.253 0 8.253-10 16.507-10 8.253 0 8.253 10 16.507 10 8.252 0 8.252-10 16.506-10 8.253 0 8.253 10 16.506 10 8.254 0 8.254-10 16.507-10 8.253 0 8.253 10 16.487 10 8.254 0 8.254-10 16.487-10 8.254 0 8.254 10 16.487 10 8.254 0 8.254-10 16.507-10 8.253 0 8.253 10 16.503 10 8.26 0 8.26-10 16.51-10" stroke="#F5F6F7" stroke-miterlimit="10" stroke-linecap="square"/></svg>