<svg width="782" height="114" fill="none" xmlns="http://www.w3.org/2000/svg"><path opacity=".5" d="M505.276 72.88c0-39.537-10.414-71.588-23.261-71.588-12.846 0-23.261 32.051-23.261 71.588 0 22.158 4.409 40.12 9.847 40.12s9.847-17.962 9.847-40.12c0-39.537-10.414-71.588-23.261-71.588s-23.261 32.051-23.261 71.588c0 22.158 4.408 40.12 9.847 40.12 5.438 0 9.846-17.962 9.846-40.12 0-39.537-10.478-71.588-23.403-71.588-12.926 0-23.404 32.051-23.404 71.588 0 22.158 4.408 40.12 9.847 40.12 5.438 0 9.846-17.962 9.846-40.12 0-39.537-10.414-71.588-23.261-71.588-12.846 0-23.26 32.051-23.26 71.588 0 22.158 4.408 40.12 9.846 40.12s9.847-17.962 9.847-40.12c0-39.537-10.415-71.588-23.262-71.588-12.846 0-23.26 32.051-23.26 71.588 0 22.158 4.409 40.12 9.846 40.12 5.438 0 9.847-17.962 9.847-40.12 0-39.537-10.415-71.588-23.261-71.588s-23.261 32.051-23.261 71.588c0 22.158 4.409 40.12 9.847 40.12s9.846-17.962 9.846-40.12c0-39.537-10.478-71.588-23.403-71.588-12.925 0-23.404 32.051-23.404 71.588m342.788 0c0-39.537-10.414-71.588-23.261-71.588s-23.261 32.051-23.261 71.588c0 22.158 4.409 40.12 9.847 40.12s9.846-17.962 9.846-40.12c0-39.537-10.414-71.588-23.26-71.588-12.847 0-23.262 32.051-23.262 71.588 0 22.158 4.409 40.12 9.847 40.12s9.847-17.962 9.847-40.12c0-39.537-10.478-71.588-23.404-71.588-12.925 0-23.404 32.051-23.404 71.588 0 22.158 4.409 40.12 9.847 40.12 5.439 0 9.846-17.962 9.846-40.12 0-39.537-10.413-71.588-23.26-71.588-12.847 0-23.261 32.051-23.261 71.588 0 22.158 4.408 40.12 9.846 40.12 5.439 0 9.847-17.962 9.847-40.12 0-39.537-10.414-71.588-23.261-71.588s-23.261 32.051-23.261 71.588c0 22.158 4.409 40.12 9.847 40.12s9.847-17.962 9.847-40.12c0-39.537-10.415-71.588-23.261-71.588-12.847 0-23.261 32.051-23.261 71.588 0 22.158 4.408 40.12 9.847 40.12 5.437 0 9.846-17.962 9.846-40.12 0-39.537-10.478-71.588-23.403-71.588-12.926 0-23.404 32.051-23.404 71.588m-222.872-.292C209.064 33.05 198.65 1 185.803 1c-12.846 0-23.261 32.05-23.261 71.588 0 22.157 4.409 40.12 9.847 40.12s9.847-17.963 9.847-40.12C182.236 33.05 171.821 1 158.975 1c-12.847 0-23.262 32.05-23.262 71.588 0 22.157 4.409 40.12 9.847 40.12 5.439 0 9.847-17.963 9.847-40.12C155.407 33.05 144.929 1 132.003 1 119.078 1 108.6 33.05 108.6 72.588c0 22.157 4.408 40.12 9.847 40.12 5.438 0 9.846-17.963 9.846-40.12C128.293 33.05 117.879 1 105.032 1s-23.26 32.05-23.26 71.588c0 22.157 4.407 40.12 9.846 40.12 5.438 0 9.847-17.963 9.847-40.12C101.465 33.05 91.05 1 78.203 1c-12.846 0-23.26 32.05-23.26 71.588 0 22.157 4.408 40.12 9.846 40.12s9.847-17.963 9.847-40.12C74.636 33.05 64.22 1 51.376 1 38.528 1 28.113 33.05 28.113 72.588c0 22.157 4.409 40.12 9.847 40.12 5.437 0 9.846-17.963 9.846-40.12C47.807 33.05 37.33 1 24.404 1 11.479 1 1 33.05 1 72.588m342.788 0C343.788 33.05 333.374 1 320.527 1s-23.261 32.05-23.261 71.588c0 22.157 4.408 40.12 9.847 40.12 5.438 0 9.846-17.963 9.846-40.12C316.959 33.05 306.545 1 293.698 1c-12.846 0-23.261 32.05-23.261 71.588 0 22.157 4.409 40.12 9.847 40.12s9.847-17.963 9.847-40.12C290.131 33.05 279.652 1 266.727 1s-23.404 32.05-23.404 71.588c0 22.157 4.409 40.12 9.847 40.12s9.846-17.963 9.846-40.12C263.016 33.05 252.602 1 239.756 1c-12.847 0-23.261 32.05-23.261 71.588 0 22.157 4.408 40.12 9.846 40.12 5.439 0 9.847-17.963 9.847-40.12C236.188 33.05 225.774 1 212.927 1s-23.261 32.05-23.261 71.588c0 22.157 4.409 40.12 9.846 40.12 5.439 0 9.847-17.963 9.847-40.12C209.359 33.05 198.945 1 186.099 1c-12.847 0-23.262 32.05-23.262 71.588 0 22.157 4.409 40.12 9.847 40.12s9.847-17.963 9.847-40.12C182.531 33.05 172.053 1 159.128 1c-12.926 0-23.404 32.05-23.404 71.588" stroke="#A1A6B4" stroke-linecap="round"/><path opacity=".5" d="M726 1l.011 55.945L747.43 5.263l-21.399 51.69 39.567-39.551-39.551 39.567 51.69-21.4-51.682 21.42L782 57l-55.945.01 51.682 21.42-51.69-21.399 39.551 39.567-39.567-39.551 21.399 51.69-21.419-51.682L726 113l-.011-55.945-21.419 51.682 21.399-51.69-39.567 39.55 39.551-39.566-51.69 21.4 51.682-21.42L670 57l55.945-.01-51.682-21.42 51.69 21.399-39.551-39.567 39.567 39.551-21.399-51.69 21.419 51.682L726 1z" stroke="#A1A6B4"/></svg>