<svg width="255" height="255" fill="none" xmlns="http://www.w3.org/2000/svg"><path opacity=".5" d="M127.5 0l.025 127.375 48.767-117.67-48.721 117.689 90.085-90.05-90.05 90.085 117.689-48.721-117.67 48.767L255 127.5l-127.375.025 117.67 48.767-117.689-48.721 90.05 90.085-90.085-90.05 48.721 117.689-48.767-117.67L127.5 255l-.025-127.375-48.767 117.67 48.721-117.689-90.085 90.05 90.05-90.085L9.705 176.292l117.67-48.767L0 127.5l127.375-.025L9.705 78.708l117.689 48.721-90.05-90.085 90.085 90.05L78.708 9.705l48.767 117.67L127.5 0z" stroke="#A1A6B4"/></svg>