<svg width="446" height="292" fill="none" xmlns="http://www.w3.org/2000/svg"><path opacity=".5" d="M103.536 1C46.906 1 1 15.515 1 33.421s45.907 32.421 102.536 32.421c31.736 0 57.464-6.144 57.464-13.724s-25.728-13.724-57.464-13.724C46.906 38.394 1 52.909 1 70.814c0 17.907 45.907 32.422 102.536 32.422 31.736 0 57.464-6.144 57.464-13.724s-25.728-13.725-57.464-13.725C46.906 75.787 1 90.392 1 108.407c0 18.016 45.907 32.621 102.536 32.621 31.736 0 57.464-6.145 57.464-13.725s-25.728-13.724-57.464-13.724C46.906 113.579 1 128.094 1 146s45.907 32.421 102.536 32.421c31.736 0 57.464-6.144 57.464-13.724s-25.728-13.725-57.464-13.725C46.906 150.972 1 165.488 1 183.394s45.907 32.421 102.536 32.421c31.736 0 57.464-6.145 57.464-13.724 0-7.58-25.728-13.725-57.464-13.725C46.906 188.366 1 202.882 1 220.787c0 17.906 45.907 32.422 102.536 32.422 31.736 0 57.464-6.145 57.464-13.725 0-7.579-25.728-13.724-57.464-13.724C46.906 225.76 1 240.364 1 258.38 1 276.395 46.907 291 103.536 291" stroke="#A1A6B4" stroke-linecap="round"/><path opacity=".5" d="M318.5 19l.025 127.375 48.767-117.67-48.721 117.689 90.085-90.05-90.05 90.085 117.689-48.721-117.67 48.767L446 146.5l-127.375.025 117.67 48.767-117.689-48.721 90.05 90.085-90.085-90.05 48.721 117.689-48.767-117.67L318.5 274l-.025-127.375-48.767 117.67 48.721-117.689-90.085 90.05 90.05-90.085-117.689 48.721 117.67-48.767L191 146.5l127.375-.025-117.67-48.767 117.689 48.721-90.05-90.085 90.085 90.05-48.721-117.689 48.767 117.67L318.5 19z" stroke="#A1A6B4"/></svg>